<svg width="18" height="14" fill="none" xmlns="http://www.w3.org/2000/svg"><path d="M17.364 8.486c.128-.455.196-.928.196-1.413C17.56 3.438 13.77.49 9.095.49c-.494 0-.977.033-1.448.096A5.948 5.948 0 005.035 0C2.324 0 .126 1.71.126 3.818c0 .705.247 1.365.675 1.931-.112.428-.171.87-.171 1.324 0 3.637 3.79 6.584 8.465 6.584.53 0 1.047-.038 1.55-.11a6.027 6.027 0 002.32.453c2.712 0 4.91-1.71 4.91-3.818 0-.61-.185-1.185-.511-1.696zm-3.928 1.734c-.391.43-.97.772-1.72 1.015-.742.24-1.632.362-2.645.362-1.216 0-2.235-.167-3.03-.495-.57-.239-1.038-.563-1.394-.962-.36-.403-.542-.804-.542-1.19 0-.24.118-.45.353-.621.232-.17.529-.256.883-.256.291 0 .542.068.746.202.195.128.362.319.496.564.15.267.314.493.487.67.166.171.405.315.71.427.306.113.72.17 1.229.17.7 0 1.274-.116 1.705-.345.422-.224.627-.492.627-.821a.732.732 0 00-.327-.625c-.23-.167-.534-.298-.904-.387a21.774 21.774 0 00-1.553-.3c-.875-.145-1.619-.318-2.211-.514a.184.184 0 01-.007-.002c-.607-.2-1.096-.48-1.454-.828a1.775 1.775 0 01-.548-1.32c0-.496.193-.945.575-1.332.378-.384.931-.682 1.643-.887.702-.202 1.538-.304 2.484-.304.756 0 1.42.068 1.975.202.558.135 1.028.318 1.398.542.372.226.65.468.823.72.176.254.265.506.265.75 0 .236-.117.45-.347.636-.232.188-.525.283-.87.283-.313 0-.559-.06-.729-.177-.158-.109-.323-.279-.505-.523a2.391 2.391 0 00-.76-.731c-.284-.168-.76-.254-1.413-.254-.607 0-1.1.095-1.467.282-.353.18-.524.386-.524.63 0 .15.055.276.168.384.12.114.29.215.505.298.222.087.452.156.681.206.236.05.63.126 1.172.223a25.952 25.952 0 011.871.38 7.01 7.01 0 011.448.515c.406.205.727.47.954.784.229.316.345.706.345 1.16 0 .542-.2 1.036-.593 1.469z" fill="#000"/></svg>