<svg width="16" height="16" fill="none" xmlns="http://www.w3.org/2000/svg"><path d="M13.687 6.714c.019-2.256-1.902-4.324-4.283-4.61-.048-.005-.1-.014-.154-.023a2.18 2.18 0 00-.362-.04c-.488 0-.619.343-.653.548-.034.198-.002.365.094.496.162.22.446.259.675.29.067.01.13.018.183.03 2.139.478 2.859 1.23 3.21 3.35.01.052.013.116.017.183.016.254.048.781.615.781a.997.997 0 00.15-.012c.529-.08.512-.562.504-.794-.002-.065-.004-.127.001-.168a.216.216 0 00.003-.03z" fill="#000"/><path d="M8.75 1.276c.062.005.122.01.172.017 3.513.54 5.128 2.204 5.576 5.744.008.06.009.134.01.212.004.276.014.852.631.864h.02a.608.608 0 00.458-.174c.192-.201.179-.5.168-.74a3.36 3.36 0 01-.005-.163C15.825 3.416 12.691.132 9.074.01a.25.25 0 00-.044.002.303.303 0 01-.043.003c-.036 0-.08-.003-.127-.007A2.69 2.69 0 008.673 0c-.576 0-.686.41-.7.654-.032.564.514.603.776.622zm5.579 10.337a9.65 9.65 0 01-.225-.175 21.36 21.36 0 00-1.186-.868l-.245-.171c-.506-.355-.96-.528-1.39-.528-.577 0-1.082.32-1.498.95-.184.279-.408.415-.683.415a1.35 1.35 0 01-.55-.139c-1.632-.74-2.797-1.874-3.463-3.37-.322-.725-.218-1.198.349-1.583.322-.218.92-.625.878-1.403-.048-.885-1.999-3.546-2.821-3.848A1.602 1.602 0 002.405.89c-.944.318-1.622.876-1.96 1.614-.327.713-.313 1.55.042 2.42 1.026 2.518 2.467 4.713 4.286 6.524 1.78 1.773 3.967 3.226 6.5 4.317.23.098.469.152.644.191.06.014.111.025.149.035a.25.25 0 00.063.009h.02c1.192 0 2.623-1.089 3.063-2.33.385-1.088-.319-1.626-.883-2.057zM9.277 4.152c-.205.005-.63.016-.778.449-.07.202-.062.377.025.521.126.211.368.276.589.312.8.128 1.21.57 1.292 1.391.038.383.296.65.627.65.025 0 .05-.001.075-.004.398-.048.59-.34.573-.87.006-.552-.283-1.179-.774-1.679-.494-.5-1.088-.783-1.63-.77z" fill="#000"/></svg>