<svg width="16" height="16" fill="none" xmlns="http://www.w3.org/2000/svg"><g clip-path="url(#clip0)"><path d="M.283 7.714L3.969 9.09l1.427 4.59a.435.435 0 00.69.207l2.055-1.675a.613.613 0 01.747-.021l3.707 2.69a.434.434 0 00.68-.262l2.716-13.06a.435.435 0 00-.582-.494L.279 6.9a.435.435 0 00.004.813zm4.883.644l7.206-4.438c.13-.08.262.096.151.199L6.577 9.646a1.233 1.233 0 00-.382.738l-.203 1.501c-.027.2-.308.22-.363.026l-.78-2.737a.725.725 0 01.317-.816z" fill="#000"/></g><defs><clipPath id="clip0"><path fill="#fff" d="M0 0h16v16H0z"/></clipPath></defs></svg>